<?xml version="1.0" encoding="UTF-8"?>
<svg id="Layer_1" data-name="Layer 1" xmlns="http://www.w3.org/2000/svg" viewBox="0 0 82.03 82.53">
  <defs>
    <style>
      .cls-1 {
        fill: #fff;
      }
    </style>
  </defs>
  <path class="cls-1" d="M27.84,52.25l-21.57-4.3c-2.55-.51-3.09-3.91-.82-5.18l19.18-10.75c.99-.55,1.54-1.64,1.41-2.77l-2.57-21.84c-.3-2.58,2.77-4.15,4.68-2.38l16.15,14.92c.83.77,2.04.96,3.07.49l19.97-9.2c2.36-1.09,4.8,1.35,3.71,3.71l-9.2,19.97c-.47,1.03-.28,2.24.49,3.07l14.92,16.15c1.76,1.91.2,4.98-2.38,4.68l-21.84-2.57c-1.12-.13-2.21.42-2.77,1.41l-10.75,19.18c-1.27,2.27-4.68,1.73-5.18-.82l-4.3-21.57c-.22-1.11-1.09-1.98-2.2-2.2Z"/>
</svg>